<?xml version="1.0" encoding="UTF-8"?>
<svg version="1.1" viewBox="0 0 400 400" xmlns="http://www.w3.org/2000/svg">
<g fill-rule="evenodd">
<path d="m168.4 100.01c-18.138 1.154-22.391 5.49-22.405 22.838l-5e-3 6.15-4.715 4.818c-7.802 7.97-13.975 18.278-17.652 29.477-0.952 2.899-1.786 3.809-4.66 5.08-17.379 7.688-20.685 30.329-5.689 38.969l3.375 1.945 0.516 5.455c0.284 3.001 0.666 7.526 0.848 10.056 0.183 2.53 0.612 5.59 0.955 6.8 0.342 1.21 0.63 2.83 0.639 3.6 0.065 5.558 5.577 26.075 9.456 35.2 4.565 10.739 10.287 20.776 16.018 28.095 1.078 1.378 2.097 2.73 2.264 3.006 0.197 0.325-0.75 1.524-2.709 3.426-2.739 2.66-4.095 4.741-5.14 7.885-0.121 0.365-2.121 1.252-4.95 2.196-2.61 0.87-7.559 2.98-10.996 4.687-7.12 3.537-6.48 3.352-7.952 2.304-4.875-3.472-25.21-8.642-28.982-7.369-0.229 0.077-2.508 0.327-5.064 0.556-41.977 3.753-69.38 39.707-61.293 80.414 0.957 4.814 0.546 4.4 4.368 4.4 3.536 0 3.602-0.026 2.995-1.16-1.621-3.029-2.598-21.426-1.48-27.857 2.042-11.74 8.864-24.639 15.811-29.896 1.391-1.053 3.31-2.873 4.265-4.046 11.055-13.571 40.075-18.754 62.582-11.178 1.65 0.556 3.171 1.174 3.38 1.374 0.209 0.199 0.772 0.363 1.251 0.363s1.095 0.27 1.369 0.6c0.541 0.652 1.6 0.816 1.6 0.249 0-0.194 0.547-0.579 1.216-0.856s1.441-0.824 1.715-1.216c0.275-0.393 1.123-0.773 1.884-0.845 0.844-0.081 1.346-0.328 1.285-0.632-0.063-0.314 0.362-0.5 1.143-0.5 0.954 0 1.188-0.143 1.006-0.615-0.236-0.615 1.215-1.489 1.851-1.114 0.165 0.097 0.3-0.083 0.3-0.401 0-0.731 1.364-1.097 2.927-0.785 0.996 0.2 1.164 0.13 0.961-0.399-0.193-0.505 0.067-0.666 1.233-0.763 1.151-0.096 1.453-0.278 1.361-0.823-0.101-0.602 0.22-0.7 2.3-0.7 1.883 0 2.418-0.133 2.418-0.6 0-0.75 1.068-0.748 4.2 7e-3 2.488 0.599 3.4 0.268 3.4-1.238 0-3.38 3.351-7.337 8.232-9.72 5.051-2.466 5.05-2.459 1.268-6.23-1.595-1.59-3.478-3.595-4.184-4.455-3.441-4.191-4.853-6.082-5.5-7.364-0.388-0.77-1.206-1.94-1.817-2.6s-1.245-1.65-1.409-2.2-0.426-1.09-0.582-1.2c-0.269-0.19-2.386-3.999-4.875-8.773-0.623-1.195-1.133-2.416-1.133-2.714 0-0.297-0.458-1.444-1.019-2.55-0.56-1.105-1.549-3.574-2.198-5.486s-1.412-3.657-1.695-3.877c-0.284-0.22-0.553-0.905-0.599-1.521-0.046-0.617-0.266-1.462-0.489-1.879-0.223-0.416-0.565-1.802-0.761-3.079-0.195-1.276-0.718-3.581-1.163-5.121-0.444-1.54-1.283-5.41-1.864-8.6-0.582-3.19-1.224-6.34-1.427-7-0.204-0.66-0.621-3.5-0.926-6.312-0.372-3.421-0.762-5.339-1.179-5.8-0.394-0.435-0.502-0.909-0.293-1.288 0.182-0.33 0.451-3.075 0.599-6.099 0.148-3.025 0.437-6.084 0.642-6.798 0.545-1.9 0.47-2.279-0.528-2.694-0.495-0.205-2.286-0.935-3.981-1.621-10.867-4.399-12.276-14.625-3.351-24.321 3.099-3.367 12.606-6.42 20.106-6.457 1.141-5e-3 2.581-0.219 3.2-0.474l1.126-0.464-1.185-0.237c-0.652-0.131-2.425-0.066-3.941 0.143-6.808 0.941-7.115-2.329-1.28-13.652 4.634-8.992 10.549-16.641 15.737-20.347l2.269-1.621-0.106-1.979c-0.059-1.089-0.182-2.789-0.275-3.779-0.092-0.99-0.179-2.126-0.193-2.524-0.015-0.398-0.198-0.617-0.409-0.487-0.21 0.13-0.283 0.546-0.162 0.924 0.187 0.583 0.155 0.597-0.211 0.087-0.714-0.992-0.566-7.595 0.149-6.651 0.793 1.047 1.173-0.496 1.172-4.749-1e-3 -1.76 0.065-2.885 0.146-2.501 0.176 0.838 1.289-0.022 1.289-0.996 0-1.145 4.855-4.694 7.543-5.514 2.258-0.689 3.33-1.297 2.832-1.604-0.242-0.15 0.256-0.384 1.108-0.52 0.851-0.136 1.9-0.572 2.332-0.969 1.006-0.924 3.988-1.813 5.003-1.49 0.43 0.136 0.782 0.096 0.782-0.089 0-0.186 1.935-0.289 4.3-0.229 2.54 0.063 3.98-0.028 3.517-0.224-0.927-0.394 1.396-0.889 3.783-0.807l1.4 0.048-1.4 0.295-1.4 0.295 1.6 0.115c2.159 0.156 2.254 0.152 3.4-0.176 0.687-0.197 0.827-0.167 0.447 0.096-0.44 0.304-0.329 0.529 0.543 1.1 1.019 0.668 1.046 0.754 0.389 1.234-0.568 0.416-0.689 1.03-0.62 3.157 0.052 1.615-0.174 3.419-0.582 4.649-1.69 5.088-0.381 8.162 3.195 7.501 3.741-0.691 10.614 1e-3 18.228 1.836 26.938 6.492 41.277 34.784 43.99 86.793 1.447 27.723 1.673 40.621 0.828 47.2-2.012 15.663-13.67 35.271-26.249 44.148-1.303 0.92-3.629 2.563-5.169 3.652-4.6 3.253-13.157 6.611-20.4 8.005-7.469 1.437-11.4 2.722-11.4 3.727 0 0.858 2.489 2.971 4.522 3.838 10.444 4.456 18.401 2.005 22.469-6.922 1.447-3.175 1.811-3.528 7.22-7 1.987-1.274 4.746-3.329 6.132-4.566 5.705-5.09 6.985-5.421 14.984-3.878 12.743 2.459 18.993 6.129 21.065 12.367 0.487 1.465 0.767 1.801 1.408 1.687 2.776-0.493 4.888-0.45 7.661 0.158 5.125 1.124 14.995 4.462 17.053 5.769 1.053 0.668 2.047 1.215 2.211 1.215 0.163 0 0.888 0.54 1.611 1.2 0.722 0.66 1.673 1.2 2.112 1.2 0.44 0 0.689 0.179 0.554 0.397s-0.061 0.713 0.164 1.1c0.252 0.432 0.414 0.501 0.422 0.179 7e-3 -0.288 0.194-0.411 0.416-0.273 0.223 0.137 0.384 0.733 0.359 1.323-0.104 2.481 0.589 6.447 1.552 8.874 0.654 1.648 1.115 3.76 1.258 5.768 0.304 4.238 0.449 4.213 5.707-0.979 8.38-8.275 16.519-12.911 29.068-16.558 13.345-3.878 34.755-2.714 42.02 2.285 1.016 0.699 2.621 1.36 3.726 1.534 2.77 0.438 5.8 1.935 9.601 4.742 1.818 1.342 3.89 2.811 4.605 3.264l1.3 0.823v-5.236-5.236l-2.7-1.402c-10.063-5.222-17.45-8.134-23.3-9.184-2.09-0.375-5.15-0.974-6.8-1.33-10.795-2.334-30.216 0.481-41.4 6.002-4.286 2.116-12.468 7.185-14.774 9.152-2.837 2.421-2.768 2.462-5.564-3.369-4.199-8.759-14.274-15.257-26.462-17.066-5.762-0.856-5.804-0.877-7.723-3.999-3.015-4.906-11.454-9.633-20.377-11.415-1.71-0.341-1.707-0.356 1.242-5.963 3.211-6.104 5.176-11.043 6.219-15.633 0.45-1.98 1.401-5.94 2.115-8.8 1.385-5.552 2.195-23.508 1.154-25.6-0.218-0.44-0.581-4.58-0.806-9.2-0.693-14.228-1.543-28.914-2.036-35.2-0.259-3.3-0.55-7.71-0.647-9.8s-0.348-4.16-0.558-4.6c-0.871-1.824-1.981-5.608-2.21-7.537-0.135-1.135-0.834-3.863-1.553-6.063s-1.628-5.08-2.019-6.4c-0.392-1.32-0.843-2.76-1.002-3.2-0.415-1.151-3.844-8.182-4.682-9.6-5.747-9.727-7.18-11.666-11.88-16.074-8.71-8.169-21.399-13.174-34.537-13.621l-5.7-0.194v-2.871c0-7.983-4.867-9.547-25.6-8.228m-6.668 78.354c-9.734 0.269-9.411 0.146-7.95 3.034 1.976 3.906 1.005 8.223-2.371 10.536-4.429 3.035-9.448-4.487-6.846-10.259 1.338-2.967 0.453-3.321-6.165-2.464-9.195 1.192-13.113 4.727-10.608 9.572 1.72 3.326 12.387 6.338 18.926 5.344 1.747-0.266 3.867-0.278 6.082-0.034 3.344 0.368 25.241-0.232 27.733-0.761 1.627-0.345 1.7-1.052 0.314-3.066-2.191-3.184-2.322-6.633-0.374-9.785 1.53-2.477 0.099-2.639-18.741-2.117m26.759 0.445l-0.909 0.37 1.209 2.266c1.609 3.015 1.592 4.897-0.071 8.123-1.824 3.536-1.372 3.715 6.705 2.657 2.406-0.315 6.165-0.702 8.354-0.86 11.579-0.838 3.471-10.86-9.993-12.352-1.312-0.146-2.836-0.334-3.386-0.419s-1.409 0.012-1.909 0.215m-46.349 64.597c-0.214 0.556 1.333 5.392 1.725 5.392 0.093 0 0.059-0.587-0.075-1.304-0.135-0.717-0.06-1.791 0.166-2.387 0.322-0.845 0.278-1.216-0.202-1.695-0.777-0.778-1.317-0.78-1.614-6e-3m85.081 13.467c-1.858 0.633-4.108 1.697-5 2.364-0.893 0.668-2.748 1.936-4.123 2.819-5.414 3.476-0.769 3.062 6.616-0.589 7.252-3.585 9.012-6.811 2.507-4.594m-19.993 57.469c-0.778 1.454-4.43 2.223-4.43 0.933 0-0.8 1.437-1.457 3.522-1.609 1.192-0.087 1.281-0.021 0.908 0.676m-94.957 67.917c-0.339 0.339-0.352 7.008-0.018 9.031 0.472 2.854 0.945 1.032 0.939-3.616-6e-3 -4.393-0.288-6.049-0.921-5.415" fill="#421514"/>
<path d="m181.8 117.62c-4.015 1.556-7.791 9.513-7.798 16.436-3e-3 2.94 0.464 3.327 3.666 3.036 4.958-0.449 6.074-2.386 6.26-10.864 0.181-8.216-0.109-9.39-2.128-8.608m-22.524 0.799c-5.132 1.274-6.011 3.759-4.442 12.553 1.289 7.222 5.116 10.432 5.626 4.72 0.377-4.221 1.408-8.022 2.965-10.935 2.828-5.292 3.087-5.883 2.847-6.51-0.329-0.856-3.132-0.788-6.996 0.172m31.363 4.421l-1.16 0.918 0.263 7.867c0.256 7.68 0.242 7.893-0.611 8.977-2.047 2.603-9.939 4.724-21.531 5.788-6.34 0.582-6.454 0.62-5.76 1.951 2.877 5.515-2.154 12.444-9.04 12.449-10.128 7e-3 -10.488-11.339-0.47-14.835 0.718-0.251-1.226-5.319-2.105-5.488-1.95-0.376-9.394 9.211-13.598 17.511-4.391 8.668-4.232 9.093 2.72 7.27 3.619-0.95 5.613-1.213 10.653-1.407 3.41-0.131 6.92-0.325 7.8-0.43 13.133-1.569 30.616-1.174 43.911 0.992 18.791 3.061 28.448 10.872 26.718 21.611-2.213 13.745-9.685 19.285-28.029 20.783-13.084 1.068-18.045 1.262-35.109 1.374-19.167 0.126-18.806 0.098-18.097 1.423 0.465 0.868 1.627 6.414 2.433 11.611 1.046 6.741-1.926 10.276-6.699 7.965-5.526-2.675-11.328-12.524-11.328-19.23 0-1.923-3.357-2.876-5.1-1.447-0.876 0.719-0.177 16.798 0.882 20.282 0.105 0.347 0.654 3.33 1.22 6.63 0.887 5.17 2.79 13.77 4.25 19.2 3.878 14.428 15.83 35.697 24.746 44.036 12.129 11.347 20.199 13.739 34.602 10.259 3.74-0.903 8.323-1.944 10.184-2.312 18.825-3.726 26.212-12.432 32.398-38.183 2.296-9.559 1.982-10.23-3.182-6.802-22.888 15.192-57.677 19.514-80.6 10.013-5.879-2.437-6.609-3.393-8.615-11.287-0.465-1.828-1.822-6.429-3.015-10.224-3.835-12.194-4.253-11.852 13.43-11.004 14.815 0.71 20.56 0.276 35.6-2.69 5.842-1.152 20.788-5.888 31-9.822 7.515-2.896 8.143-3.085 9.271-2.802 2.556 0.642 3.997 3.512 6.49 12.934 1.04 3.934 1.618 5.484 2.045 5.484 1.055 0 0.898-23.265-0.199-29.4-0.059-0.33-0.23-1.86-0.381-3.4-0.478-4.888-3.447-22.223-4.624-27-0.623-2.53-1.34-5.68-1.592-7-0.891-4.664-5.596-18.575-8.338-24.653-3.934-8.722-12.956-21.471-17.672-24.972-4.786-3.553-11.242-4.932-13.761-2.94m-67.039 53.939c-8.871 2.708-13.604 14.323-7.939 19.481 2.886 2.628 14.283 5.454 15.308 3.796 0.154-0.25 0.036-0.451-0.267-0.451-1.02 0-6.962-3.102-8.458-4.415-5.724-5.026-4.13-11.306 4.237-16.696 1.272-0.819 2.314-1.624 2.316-1.789 4e-3 -0.383-3.88-0.328-5.197 0.074m84.8 2.8c0 0.254 0.463 0.948 1.029 1.543 7.381 7.762 5.025 12.95-7.123 15.689-9.009 2.031-10.985 2.922-7.614 3.431 4.264 0.643 16.882-1.363 20.575-3.272 3.77-1.948 3.988-8.561 0.439-13.3-1.693-2.26-7.306-5.403-7.306-4.091m64.069 134.14c-0.887 1.068-1.428 16.673-0.699 20.141 1.008 4.789 0.26 5.951-7.876 12.245-3.693 2.857-4.142 3.497-2.452 3.497 2.516 0 11.173 2.984 12.758 4.398 2.686 2.396 16.346-7.006 21.218-14.604 4.017-6.264 3.762-15.044-0.54-18.59-4.741-3.909-20.825-8.996-22.409-7.087m-124.35 17.749c-0.141 0.367 0.043 3.022 0.407 5.9 0.364 2.879 0.75 6.207 0.857 7.396 0.255 2.846 1.12 3.71 5.169 5.173 10.476 3.784 26.614 6.967 37.848 7.465 22.101 0.979 57.801-7.212 59.785-13.718 0.393-1.288-1.329-11.319-2.091-12.182-0.882-0.999-1.205-0.941-8.508 1.517-11.118 3.742-17.425 5.384-25.292 6.584-2.912 0.444-7.004 1.102-9.094 1.463-15.486 2.675-39.553-0.965-53.642-8.112-4.643-2.356-5.061-2.47-5.439-1.486m98.099 7.516c2.224 2.224-0.382 5.779-2.929 3.995-1.825-1.278-0.771-4.977 1.418-4.977 0.291 0 0.971 0.442 1.511 0.982m-91.349 0.48c0.929 0.841 0.928 1.806-2e-3 2.954-1.609 1.988-4.525-0.446-3.115-2.6 0.767-1.169 2.054-1.315 3.117-0.354m74.149 4.72c1.214 1.213 1.219 1.498 0.051 2.856-1.728 2.009-4.646-0.015-3.409-2.364 0.922-1.752 1.948-1.902 3.358-0.492m-59.647 0.447c1.225 1.224 0.178 4.171-1.482 4.171-1.822 0-3.093-3.036-1.809-4.32 0.68-0.68 2.548-0.595 3.291 0.149m37.834 2.98c0.298 0.556 0.298 1.026 0 1.582-1.211 2.263-4.171 1.58-3.929-0.907 0.225-2.296 2.822-2.743 3.929-0.675m-21.256 0.819c0.76 1.36 0.333 2.915-0.962 3.505-1.185 0.54-2.319 0.115-2.978-1.116-1.453-2.715 2.439-5.076 3.94-2.389m-71.815 8.601c-0.801 2.087 1.38 10.171 2.744 10.171 3.199 0 10.444 5.941 11.859 9.724 1.631 4.36 2.289 18.23 1.052 22.176l-0.282 0.9h76.018 76.017l0.292-2.3c0.323-2.555-0.342-14.883-1.202-22.3-0.307-2.64-0.673-6.51-0.813-8.6-0.424-6.287-0.589-6.392-6.448-4.09-6.015 2.363-11.699 4.384-14.371 5.11-1.32 0.359-3.75 1.069-5.4 1.578s-5.16 1.305-7.8 1.769-6.69 1.28-9 1.814c-5.774 1.334-22.163 3.204-31.6 3.604-7.27 0.309-29.174-0.383-36.6-1.155-3.3-0.344-7.8-0.815-10-1.047s-6.34-0.962-9.2-1.623-6.448-1.49-7.974-1.842c-7.582-1.75-17.48-6.878-23.492-12.171-2.807-2.471-3.407-2.743-3.8-1.718" fill="#eb1c24"/>
<path d="m182.8 102c-0.33 0.213-0.983 0.391-1.451 0.394-1.303 9e-3 -2.054 1.108-0.872 1.275 2.6 0.369 0.137 0.958-4.973 1.19-3.644 0.165-6.282 0.484-7.304 0.882-0.88 0.343-1.906 0.632-2.279 0.641-1.95 0.051-7.069 2.08-7.708 3.055-0.372 0.566-1.288 1.286-2.036 1.598-1.716 0.717-2.451 1.838-3.013 4.588-0.245 1.198-0.599 2.897-0.787 3.777-0.475 2.222-0.457 6.586 0.037 8.89 0.227 1.061 0.452 3.25 0.5 4.866 0.094 3.214 0.261 2.964-2.937 4.414-4.036 1.83-10.985 10.737-15.754 20.191-5.105 10.121-4.652 11.663 2.977 10.138 3.33-0.665 5.65-0.836 11.2-0.825l7 0.014 3.178 1.388c5.074 2.219 4.657 2.609-3.378 3.158-2.97 0.203-8.46 0.635-12.2 0.96s-9.439 0.774-12.665 0.998-6.196 0.523-6.6 0.666c-12.488 4.401-17.343 19.012-8.203 24.683 6.434 3.993 14.403 4.814 46.268 4.768 33.16-0.047 43.218-0.547 50.268-2.501 1.582-0.438 2.953-0.72 3.047-0.626 0.185 0.185-2.577 1.418-3.176 1.418-0.201 0-1.412 0.353-2.692 0.784s-3.749 0.9-5.487 1.041-4.78 0.419-6.76 0.617c-1.98 0.199-5.49 0.533-7.8 0.743-4.493 0.409-26.086 0.635-49.149 0.514-14.638-0.077-15.34-6e-3 -15.924 1.601-0.484 1.333-0.193 11.344 0.503 17.3 0.569 4.869 1.024 7.517 2.918 17 1.344 6.724 3.667 15.58 4.827 18.4 0.407 0.99 1.009 2.52 1.339 3.4s1.249 3.1 2.043 4.934c0.793 1.833 1.443 3.529 1.443 3.767 0 0.718 5.532 10.616 8.327 14.899 4.727 7.245 10.287 13.408 17.732 19.655 7.295 6.123 17.569 8.135 26.66 5.223 2.485-0.796 7.165-2.008 10.4-2.693 14.094-2.985 18.977-5.517 29.963-15.54 10.307-9.403 17.25-21.078 20.913-35.168 1.251-4.812 1.774-17.612 1-24.477-0.087-0.77-0.269-5.81-0.406-11.2-0.454-17.982-2.521-37.913-5.244-50.57-5.977-27.784-18.623-44.601-37.145-49.4-13.054-3.381-16.769-3.63-21.848-1.461-1.287 0.549-2.658-7.675-1.696-10.169 1.497-3.879 1.377-6.4-0.305-6.4-0.836 0-1.036-1.038-0.251-1.302 0.9-0.303-0.417-1.445-1.377-1.194-0.579 0.152-0.757 0.075-0.562-0.241 0.346-0.56 0.228-0.573-0.561-0.063m0.8 4.228c0 0.417-0.292 0.585-0.869 0.5-1.28-0.189-1.417-1.128-0.164-1.128 0.672 0 1.033 0.219 1.033 0.628m0.86 14.271c0.91 9.082 0 14.41-2.736 16.003-1.745 1.016-6.046 1.66-7.471 1.118l-1.101-0.419 0.256-3.9c0.432-6.555 2.118-10.87 5.559-14.223 3.636-3.545 5.031-3.184 5.493 1.421m-17.34-3.219c0.779 0.779 0.576 1.498-1.271 4.486-3.253 5.262-4.179 8.047-4.601 13.826-0.401 5.483-3.525 5.899-5.37 0.714-2.719-7.642-3.1-16.343-0.759-17.319 4.002-1.668 11.039-2.669 12.001-1.707m32.258 5.112c6.826 2.349 14.536 11.078 21.557 24.408 10.013 19.01 17.782 56.704 17.889 86.8 0.036 9.929-0.066 10.8-1.257 10.8-1.026 0-1.748-1.593-2.537-5.6-2.471-12.545-5.269-16.361-10.15-13.843-2.239 1.155-11.542 4.475-24.88 8.878-14.743 4.867-27.755 6.392-48.519 5.689-16.294-0.552-15.432-1.718-10.565 14.276 1.205 3.96 2.323 7.83 2.485 8.6 1.13 5.368 2.446 6.701 9.199 9.319 14.765 5.724 35.671 6.078 52.586 0.889 1.657-0.508 4.364-1.318 6.014-1.8 6.08-1.774 14.626-5.883 20.551-9.882 5.985-4.039 6.453-2.976 3.638 8.274-6.647 26.564-13.214 33.685-35.389 38.377-3.19 0.674-7.51 1.699-9.6 2.276-11.759 3.247-21.193 0.127-33.437-11.058-12.042-11.001-23.943-36.181-28.166-59.595-0.457-2.53-1.171-6.31-1.587-8.4-1.614-8.1-2.354-21.086-1.278-22.416 1.324-1.634 15.239-2.6 20.868-1.448 10.134 2.073 54.364 0.474 64.2-2.321 8.584-2.439 14.569-7.133 14.596-11.445 2e-3 -0.346 0.47-1.966 1.04-3.6 3.429-9.828-0.825-16.927-12.692-21.185-6.772-2.429-7.718-2.678-12.944-3.399-2.64-0.364-5.7-0.815-6.8-1.001-8.113-1.375-44.603-0.313-47.339 1.377-0.88 0.544-12.977 1.439-13.507 1-1.456-1.209 4.411-13.208 9.468-19.362 6.489-7.897 8.072-8.798 9.2-5.234 0.794 2.511 1.4 2.879 5.778 3.513 11.533 1.67 29.187-1.386 31.269-5.413 0.566-1.094 0.58-1.814 0.125-6.525-1.1-11.404 1.314-14 10.184-10.949m-11.854 15.487c0.228 2.352-5.567 4.445-15.209 5.495-3.143 0.342-6.525 0.711-7.515 0.821-2.172 0.24-8.839-0.474-9.368-1.003-0.628-0.628 0.086-0.946 1.915-0.851 0.952 0.049 2.562-0.096 3.577-0.324 1.014-0.227 3.697-0.583 5.96-0.789 13.323-1.217 15.63-1.701 18.116-3.798 1.552-1.31 2.367-1.165 2.524 0.449m17.076 30.702c8.849 1.713 11.793 3.039 16.035 7.219 3.49 3.439 5.321 10.405 3.606 13.72-0.607 1.175-1.106 1.447-3.239 1.769-0.438 0.067-1.363 0.985-2.054 2.042-2.61 3.988-3.243 4.379-9.829 6.069-5.542 1.422-25.519 2.214-25.519 1.011 0-0.166 1.395-0.516 3.1-0.778 1.705-0.263 5.276-1.005 7.935-1.65s6.611-1.53 8.783-1.967c11.673-2.348 12.8-8.783 2.918-16.667-2.629-2.098-2.752-2.268-2.137-2.948 0.916-1.012-0.277-2.075-3.091-2.755-1.159-0.281-3.728-1.033-5.708-1.672s-5.447-1.53-7.704-1.979c-6.67-1.329-7.414-1.88-3.696-2.741 3.597-0.832 12.365-0.268 20.6 1.327m-73.2 7.619c0 0.22-1.4 1.12-3.111 2-5.925 3.048-8.689 6.293-8.689 10.2 0 7.693 8.908 11.578 26.6 11.6 6.33 8e-3 10.129 0.349 9.336 0.839-2.399 1.483-31.452 0.014-35.962-1.818-10.991-4.466-8.338-18.823 4.226-22.868 1.836-0.591 7.6-0.555 7.6 0.047m63.502 1.161c16.678 3.067 22.303 14.37 8.197 16.471-2.254 0.336-6.333 1.143-9.064 1.795-11.055 2.636-56.466 2.91-64.035 0.386-12.69-4.232-10.107-14.052 4.763-18.106 5.487-1.496 52.647-1.924 60.139-0.546m-47.658 4.063c-3.024 2.545-1.57 8.576 2.068 8.576 4.13 0 5.071-7.08 1.214-9.135-1.29-0.687-1.93-0.578-3.282 0.559m35.42-0.203c-3.774 2.969-0.729 10.555 3.358 8.367 2.848-1.524 2.397-7.64-0.648-8.798-1.392-0.529-1.514-0.51-2.71 0.431m-31.483 1.359c1.744 1.857 0.85 6.122-1.376 6.559-1.958 0.385-3.688-2.043-3.273-4.595 0.467-2.881 2.844-3.885 4.649-1.964m34.201-0.732c1.618 0.621 2.267 3.723 1.208 5.772-1.382 2.672-4.772 0.952-4.772-2.42 0-2.633 1.575-4.115 3.564-3.352m37.018 13.578c0 1.066-0.772 2.139-1.992 2.77-2.327 1.203-2.564 0.692-0.805-1.736 1.215-1.678 2.797-2.262 2.797-1.034m7.08 31.874c0.719 0.789 1.963 4.082 2.684 7.1 0.131 0.55 0.419 2.69 0.64 4.756 0.3 2.805 0.746 4.526 1.764 6.8 3.201 7.153 3.013 8.385-1.863 12.223-5.495 4.326-15.312 9.209-22.183 11.035-1.717 0.456-4.472 1.251-6.122 1.767-2.95 0.923-13.466 2.586-21.475 3.397-8.152 0.826-22.396-1.23-28.913-4.173-1.712-0.773-3.309-1.405-3.549-1.405-2.789 0-3.8-1.608-6.286-10-1.141-3.85-2.635-8.8-3.321-11-2.317-7.434-2.717-7.153 9.409-6.621 19.675 0.863 30.782 0.394 35.764-1.512 0.567-0.216 1.647-0.428 2.4-0.471 5.705-0.321 1.952 1.673-4.05 2.152-1.221 0.098-3.741 0.636-5.6 1.196-5.742 1.729-11.31 2.388-21.099 2.494-11.469 0.125-11.183-0.118-8.725 7.411 0.746 2.283 1.572 5.203 1.836 6.489 1.527 7.421 3.854 7.321 5.189-0.224 1.348-7.62 1.403-7.65 11.42-6.303 11.597 1.559 21.828-0.148 38.169-6.367 7.044-2.681 7.257-2.672 10.024 0.434 8.032 9.017 8.533 9.28 13.313 6.972 3.201-1.546 3.628-2.483 3.268-7.183-0.314-4.109-3.624-13.874-5.564-16.419-2.081-2.728 0.567-5.078 2.87-2.548m-7.479 2.099c-0.514 0.619-4.393 1.942-4.725 1.611-0.181-0.182 0.593-0.544 3.524-1.648 1.789-0.673 1.79-0.673 1.201 0.037m-7.56 3.375c-1.407 0.866-3.477 1.792-4.6 2.058s-3.027 0.932-4.232 1.479c-2.263 1.028-7.209 1.722-7.209 1.012 0-0.485 3.222-1.953 5.6-2.55 0.99-0.249 2.836-0.887 4.101-1.418 2.167-0.91 6.323-1.989 8.099-2.103 0.446-0.029-0.333 0.645-1.759 1.522m-4.641 16.464c-0.66 0.159-3.54 1.277-6.4 2.485-12.702 5.363-24.854 7.101-39.409 5.636-2.789-0.281-3.287 0.204-4.806 4.687-1.212 3.574-1.078 5.155 0.51 6.005 2.865 1.533 16.518 2.046 25.355 0.952 11.436-1.416 33.855-9.122 34.955-12.015 1.237-3.254-6.014-8.76-10.205-7.75m61.564 61.552c-1.262 0.509-1.657 2.054-2.153 8.41-0.842 10.809-1.839 13.079-2.809 6.399-0.798-5.502-1.056-5.657-4.967-2.979-3.897 2.668-8.885 4.976-10.814 5.003-0.891 0.012-2.188 0.237-2.881 0.5-0.693 0.262-4.653 1.593-8.8 2.958-14.188 4.669-17.525 5.38-34.34 7.323-1.98 0.229-5.046 0.593-6.814 0.809-3.876 0.474-11.607-0.216-22.21-1.982-8.584-1.429-12.223-2.698-22.633-7.892l-7.658-3.82-1.093-2.573c-1.645-3.872-3.353-4.064-9.992-1.125-0.66 0.292-2.28 0.947-3.6 1.455s-3.12 1.316-4 1.795c-0.88 0.48-2.5 1.358-3.6 1.952s-2.09 1.198-2.2 1.343c-1.766 2.325-5.319 3.222-7.216 1.822-2.646-1.952-11.093-4.14-19.984-5.175-2.75-0.321-6.08-0.883-7.4-1.251-10.139-2.82-33.605 6.315-39.852 15.515-0.945 1.391-2.475 2.928-3.857 3.875-7.058 4.836-13.104 16.199-15.138 28.448-1.124 6.764-0.094 23.575 1.676 27.37l0.573 1.23-0.168-1.8c-0.093-0.99-0.484-3.69-0.868-6-3.092-18.57 3.004-40.803 12.691-46.288 2.216-1.256 3.401-2.539 6.287-6.815 7.167-10.616 39.656-20.225 39.656-11.73 0 3.989-4.819 7.827-18.2 14.494-13.302 6.629-16.52 8.82-22.038 15.006-1.341 1.503-3.122 3.093-3.958 3.533-4.212 2.216-7.486 18.401-6.778 33.5l0.276 5.9h4.149c3.732 0 4.884-0.299 3.78-0.981-0.202-0.125-0.492-1.441-0.644-2.923-0.153-1.498-0.772-3.851-1.393-5.296-1.671-3.89-2.68-12.699-1.642-14.337 0.641-1.011 3.236 10.58 3.245 14.497 2e-3 0.639 0.678 2.933 1.503 5.1l1.5 3.939h25.22l25.22 1e-3 2.008-1.7c9.242-7.827 11.277-14.776 8.991-30.7-1.093-7.615-1.518-18.474-0.869-22.2 0.903-5.181 2.411-6.905 3.237-3.7 0.241 0.935 0.906 3.102 1.477 4.815l1.038 3.116-0.961 2.059c-1.178 2.523-1.181 4.829-0.017 11.91 2.794 17 2.656 15.634 2.656 26.272 0 6.896 0.126 9.86 0.4 9.4 0.794-1.334 0.454-17.691-0.504-24.272-0.481-3.3-0.899-7.62-0.929-9.6s-0.08-5.037-0.111-6.793c-0.074-4.199 0.479-4.359 3.874-1.119 6.73 6.425 16.732 11.468 26.78 13.504 2.689 0.545 5.859 1.255 7.043 1.577 2.655 0.723 7.979 1.337 14.047 1.619 2.53 0.118 6.04 0.387 7.8 0.598 6.471 0.775 28.856 1.321 35.4 0.864 14.706-1.028 22.575-1.998 28.4-3.5 2.09-0.538 5.6-1.245 7.8-1.571 4.145-0.613 11.506-2.584 17.4-4.66 1.87-0.659 4.66-1.603 6.2-2.098s4.09-1.468 5.667-2.161c5.329-2.342 5.719-2 6.377 5.588 0.275 3.163 0.807 8.542 1.182 11.952 0.376 3.41 0.7 9.485 0.72 13.5l0.037 7.3h6.275c4.646 0 6.328-0.13 6.477-0.5 0.161-0.4 0.208-0.4 0.233 0 0.041 0.649 84.032 0.744 84.032 0.095 0-0.223-0.167-0.718-0.371-1.1-5.94-11.129-10.429-39.528-8.235-52.095 0.365-2.09 0.849-5.42 1.075-7.4 0.471-4.129 1.971-8.39 4.332-12.304 1.858-3.081 1.94-3.654 0.647-4.501-5.292-3.468-25.418-4.481-35.248-1.775-30.905 8.509-46.975 29.587-46.998 61.647-1e-3 1.907-0.111 3.751-0.244 4.098-0.436 1.137-0.958 0.225-0.965-1.689-4e-3 -1.032-0.284-3.766-0.621-6.076-1.096-7.501-0.025-16.921 3.024-26.6 0.832-2.64 1.641-5.43 1.798-6.2 0.158-0.77 0.852-2.293 1.543-3.385 1.518-2.4 1.749-4.995 1.12-12.615-0.578-7.017-1.909-9.325-7.257-12.589-4.741-2.894-19.595-7.125-21.836-6.221m11.163 3.861c13.078 3.902 16.101 6.72 16.037 14.949-0.071 9.026-4.982 15.688-16.881 22.895-1.475 0.894-3.403 2.245-4.283 3.002-2.286 1.968-11.456 6.275-15.982 7.508-2.118 0.577-4.844 1.391-6.058 1.809-1.215 0.418-3.323 0.954-4.684 1.191-1.362 0.238-4.055 0.878-5.985 1.423-3.655 1.033-4.789 1.203-17.263 2.595-4.165 0.464-8.845 1.096-10.4 1.402-1.555 0.307-6.608 0.747-11.228 0.978-4.62 0.23-9.75 0.577-11.4 0.77-5.87 0.686-24.524-0.168-28.202-1.292-1.761-0.538-6.129-1.467-9.707-2.066-16.172-2.705-35.875-11.332-40.403-17.691-8.193-11.507-2.335-21.563 16.912-29.032 9.81-3.807 10.564-3.272 10.593 7.508 0.033 12.231 3.472 20.325 10.188 23.971 22.102 12.002 71.776 9.97 99.647-4.076 2.215-1.117 5.172-2.495 6.57-3.063 6.679-2.714 11.89-8.085 11.377-11.726-0.355-2.521-0.319-16.641 0.052-20.006 0.434-3.951 1.146-4.019 11.1-1.049m100.81 11.131c-2.313 1.006-5.537 5.908-7.815 11.885l-2.033 5.333 0.068 9.8c0.065 9.466 0.114 10.028 1.44 16.48 0.756 3.674 1.659 8.354 2.008 10.4 0.348 2.046 1.071 5.17 1.604 6.942 0.534 1.773 1.245 4.563 1.579 6.2 0.334 1.638 0.897 3.926 1.25 5.086l0.643 2.107 8.861-0.107 8.86-0.108 0.102-31.286c0.118-36.052 0.642-31.841-4.555-36.626-6.047-5.569-9.368-7.257-12.012-6.106m-230.08 6.43c7.759 3.953 13.473 5.749 24.141 7.589 11.409 1.967 21.433 2.104 31.835 0.434 2.071-0.332 5.655-0.893 7.965-1.246 5.401-0.825 15.495-3.515 24.506-6.532 9.533-3.191 9.316-3.293 10.69 5.039 1.281 7.768 0.694 8.624-8.396 12.231-23.54 9.344-53.4 10.611-80.532 3.419-13.991-3.709-15.069-4.348-15.067-8.935 1e-3 -1.546-0.29-5.108-0.645-7.915-0.927-7.31-0.887-7.339 5.503-4.084m107.14 0.964c0 1.009-0.686 1.417-1.394 0.829-0.728-0.604-0.331-1.605 0.637-1.605 0.483 0 0.757 0.281 0.757 0.776m8.721 3.672c0.306 2.629-11.969 11.664-15.043 11.072-0.993-0.192 2.3-3.62 5.522-5.75 1.43-0.945 3.86-2.807 5.4-4.137 2.987-2.58 3.927-2.851 4.121-1.185m-25.698 2.841c-0.807 1.152-0.785 1.64 0.108 2.449 1.215 1.099 2.869 0.327 2.869-1.338 0-1.806-1.975-2.542-2.977-1.111m-90.619 0.506c-0.652 0.786-0.228 1.805 0.75 1.805 0.934 0 1.272-0.739 0.778-1.7-0.441-0.856-0.879-0.887-1.528-0.105m73.751 4.777c-0.398 1.038 0.16 1.896 1.143 1.756 0.661-0.094 0.902-0.395 0.902-1.128 0-1.181-1.639-1.684-2.045-0.628m-59.991 0.378c-0.479 1.249 6e-3 2.05 1.241 2.05 1.061 0 1.195-0.135 1.195-1.2 0-1.364-1.974-2.053-2.436-0.85m37.699 2.429c-0.384 1.001 0.161 1.874 1.088 1.742 0.607-0.086 0.849-0.406 0.849-1.121 0-1.165-1.538-1.659-1.937-0.621m-21.383 0.701c-1.227 1.227 0.453 3.505 1.982 2.687 1.361-0.728 0.697-3.167-0.862-3.167-0.352 0-0.856 0.216-1.12 0.48m104.52 4.322c-0.4 0.442-0.832 0.697-0.962 0.568-0.129-0.13 0.114-0.491 0.541-0.803 1.096-0.801 1.271-0.704 0.421 0.235m-3.704 2.81c-1.314 1.194-3.101 1.633-2.804 0.688 0.184-0.585 2.637-1.904 3.51-1.888 0.381 7e-3 0.123 0.445-0.706 1.2m-120.89-0.188c1.43 0.337 4.04 1.047 5.8 1.577s4.249 1.168 5.532 1.417c4.019 0.779 2.274 0.763-2.886-0.027-4.617-0.707-10.964-2.446-11.826-3.241-0.55-0.507 0.386-0.431 3.38 0.274" fill="#a0131b"/>
<path d="m153.4 148.26c-6.067 3.088-7.58 7.732-3.126 9.593 5.67 2.369 11.557-3.982 8.741-9.428-1.056-2.043-1.877-2.067-5.615-0.165m-4.995 36.127c-0.518 0.967-0.228 2.238 0.581 2.548 0.807 0.31 1.492-0.716 1.343-2.011-0.159-1.381-1.302-1.7-1.924-0.537m35.332 0.23c-0.288 0.75 0.334 2.04 0.907 1.879 0.546-0.153 0.423-2.211-0.144-2.4-0.275-0.092-0.618 0.143-0.763 0.521m-49.559 23.891c-0.285 0.744 1.625 7.987 2.761 10.467 2.301 5.026 7.827 9.19 9.508 7.164 0.977-1.176-0.635-14.705-2.072-17.39-0.507-0.948-9.841-1.168-10.197-0.241m-18.171 162.59c4e-3 0.605 0.283 2.81 0.619 4.9 1.205 7.482 1.193 20.357-0.023 23.3-0.267 0.647 0.134 0.7 5.29 0.7h5.579l0.082-7.735c0.145-13.716-1.305-17.485-8.095-21.04-2.912-1.524-3.461-1.544-3.452-0.125" fill="#ee957a"/>
<path d="m150 147.1c-10.09 5.309-2.967 17.663 7.456 12.93 4.967-2.256 6.918-11.625 2.666-12.806-1.562-0.434-3.184-0.55-2.211-0.158 4.263 1.715 0.895 10.742-4.19 11.23-7.584 0.729-7.954-6.301-0.521-9.896 3.026-1.465 3.102-1.765 0.545-2.149-1.343-0.202-2.055-0.04-3.745 0.849m58.975 25.653c0.158 0.256 1.522 1.087 3.031 1.847 1.51 0.76 4.056 2.48 5.66 3.823 2.95 2.471 3.687 2.599 2.573 0.445-0.776-1.501-2.963-3.228-6.061-4.786-2.676-1.346-5.689-2.116-5.203-1.329m-64.558 36.071c1.405 2.625 2.994 16.16 2.033 17.317-2.755 3.32-9.269-4.33-11.556-13.571-1.003-4.057-1.079-4.206-2.066-4.091-3.259 0.379 0.805 12.426 5.864 17.384 6.968 6.83 12.365 4.529 10.938-4.665-0.911-5.87-2.023-10.934-2.593-11.804-0.729-1.113-3.198-1.65-2.62-0.57m-10.414 116.1c-16.398 6.545-22.201 13.356-18.441 21.647 4.415 9.738 21.386 18.021 44.299 21.621 3.488 0.549 7.782 1.305 9.542 1.68 4.544 0.971 35.62 0.94 42.6-0.042 2.53-0.355 8.47-1.098 13.2-1.65 20.188-2.355 38.967-7.233 47.945-12.454 2.206-1.283 1.761-1.857-2.853-3.681-7.978-3.155-9.698-3.187-15.15-0.287-21.176 11.265-56.308 15.691-83.156 10.477-13.597-2.641-22.723-6.475-25.991-10.918-2.438-3.316-4.795-14.754-4.795-23.276 0-5.637-0.425-5.821-7.2-3.117m-60 2.269c-16.219 3.525-26.455 11.312-28.986 22.051-1.449 6.146-0.975 6.301 4.586 1.501 4.903-4.233 6.504-5.207 17.994-10.949 19.572-9.783 22.819-16.17 6.406-12.603m-37.734 27.705c-5.322 7.098-8.074 24.232-5.863 36.5 0.942 5.228 1.028 6.047 0.768 7.3l-0.27 1.3h1.792c1.528 0 1.754-0.101 1.53-0.685-1.308-3.407-0.987-15.421 0.612-22.874 4.125-19.239 4.555-25.707 1.431-21.541m79.734 13.7c0 0.933 0.187 1.4 0.559 1.4 1.025 0 5.22 2.431 6.776 3.925 3.43 3.297 4.362 7.079 4.253 17.275-0.099 9.294-0.154 8.8 0.965 8.8 2.457 0 2.589-16.648 0.184-23.076-2.017-5.391-12.737-12.397-12.737-8.324" fill="#f36465"/>
<path d="m180.6 100.71c-1.059 0.166-1.106 0.226-0.4 0.512 0.492 0.2-0.665 0.325-3 0.325-2.684 0-3.565-0.111-3-0.378 0.63-0.298 0.546-0.328-0.396-0.14-0.658 0.13-1.313 0.426-1.455 0.657-0.143 0.231-0.474 0.287-0.736 0.125-0.66-0.408-4.045 0.594-4.998 1.48-0.432 0.401-1.481 0.841-2.332 0.977-0.852 0.136-1.35 0.37-1.108 0.52 0.498 0.307-0.574 0.915-2.832 1.604-2.688 0.82-7.543 4.369-7.543 5.514 0 0.974-1.113 1.834-1.289 0.996-0.081-0.384-0.147 0.741-0.146 2.501 1e-3 4.253-0.379 5.796-1.172 4.749-0.715-0.944-0.863 5.659-0.149 6.651 0.366 0.51 0.398 0.496 0.211-0.087-0.121-0.378-0.048-0.794 0.162-0.924 0.211-0.13 0.394 0.089 0.409 0.487 0.014 0.398 0.101 1.534 0.193 2.524 0.093 0.99 0.216 2.69 0.275 3.779l0.106 1.979-2.269 1.621c-5.188 3.706-11.103 11.355-15.737 20.347-5.835 11.323-5.528 14.593 1.28 13.652 1.516-0.209 3.289-0.274 3.941-0.143l1.185 0.237-1.126 0.464c-0.619 0.255-2.059 0.469-3.2 0.474-7.5 0.037-17.007 3.09-20.106 6.457-8.925 9.696-7.516 19.922 3.351 24.321 1.695 0.686 3.486 1.416 3.981 1.621 0.998 0.415 1.073 0.794 0.528 2.694-0.205 0.714-0.494 3.773-0.642 6.798-0.148 3.024-0.417 5.769-0.599 6.099-0.209 0.379-0.101 0.853 0.293 1.288 0.417 0.461 0.807 2.379 1.179 5.8 0.305 2.812 0.722 5.652 0.926 6.312 0.203 0.66 0.845 3.81 1.427 7 0.581 3.19 1.42 7.06 1.864 8.6 0.445 1.54 0.968 3.845 1.163 5.121 0.196 1.277 0.538 2.663 0.761 3.079 0.223 0.417 0.443 1.262 0.489 1.879 0.046 0.616 0.315 1.301 0.599 1.521 0.283 0.22 1.046 1.965 1.695 3.877s1.638 4.381 2.198 5.486c0.561 1.106 1.019 2.253 1.019 2.55 0 0.298 0.51 1.519 1.133 2.714 2.489 4.774 4.606 8.583 4.875 8.773 0.156 0.11 0.418 0.65 0.582 1.2s0.798 1.54 1.409 2.2 1.429 1.83 1.817 2.6c0.647 1.282 2.059 3.173 5.5 7.364 0.706 0.86 2.589 2.865 4.184 4.455 3.782 3.771 3.783 3.764-1.268 6.23-4.881 2.383-8.232 6.34-8.232 9.72 0 1.506-0.912 1.837-3.4 1.238-3.132-0.755-4.2-0.757-4.2-7e-3 0 0.467-0.535 0.6-2.418 0.6-2.08 0-2.401 0.098-2.3 0.7 0.092 0.545-0.21 0.727-1.361 0.823-1.166 0.097-1.426 0.258-1.233 0.763 0.203 0.529 0.035 0.599-0.961 0.399-1.563-0.312-2.927 0.054-2.927 0.785 0 0.318-0.135 0.498-0.3 0.401-0.636-0.375-2.087 0.499-1.851 1.114 0.182 0.472-0.052 0.615-1.006 0.615-0.781 0-1.206 0.186-1.143 0.5 0.061 0.304-0.441 0.551-1.285 0.632-0.761 0.072-1.609 0.452-1.884 0.845-0.274 0.392-1.046 0.939-1.715 1.216s-1.216 0.662-1.216 0.856c0 0.567-1.059 0.403-1.6-0.249-0.274-0.33-0.89-0.6-1.369-0.6s-1.042-0.164-1.251-0.363c-1.044-0.998-8.215-3.007-13.58-3.804-13.892-2.064-23.413-1.545-32.567 1.773-9.169 3.325-16.4 7.644-19.815 11.835-0.955 1.173-2.874 2.993-4.265 4.046-6.947 5.257-13.769 18.156-15.811 29.896-1.137 6.539-0.211 23.763 1.502 27.917 0.488 1.185 1.835 1.605 1.385 0.432-1.083-2.824-2.229-12.66-2.227-19.12 4e-3 -15.323 6.558-30.803 15.689-37.06 1.382-0.947 2.912-2.484 3.857-3.875 6.247-9.2 29.713-18.335 39.852-15.515 1.32 0.368 4.65 0.93 7.4 1.251 8.891 1.035 17.338 3.223 19.984 5.175 1.897 1.4 5.45 0.503 7.216-1.822 0.11-0.145 1.1-0.749 2.2-1.343s2.72-1.472 3.6-1.952c0.88-0.479 2.68-1.287 4-1.795s2.94-1.163 3.6-1.455c6.639-2.939 8.347-2.747 9.992 1.125l1.093 2.573 7.658 3.82c10.41 5.194 14.049 6.463 22.633 7.892 10.603 1.766 18.334 2.456 22.21 1.982 1.768-0.216 4.834-0.58 6.814-0.809 16.815-1.943 20.152-2.654 34.34-7.323 4.147-1.365 8.107-2.696 8.8-2.958 0.693-0.263 1.99-0.488 2.881-0.5 1.929-0.027 6.917-2.335 10.814-5.003 3.911-2.678 4.169-2.523 4.967 2.979 0.97 6.68 1.967 4.41 2.809-6.399 0.65-8.337 1.155-9.171 5.088-8.413 13.458 2.594 22.388 6.954 24.948 12.182 1.966 4.016 2.023 16.19 0.09 19.246-0.691 1.092-1.385 2.615-1.543 3.385-0.157 0.77-0.966 3.56-1.798 6.2-3.049 9.679-4.12 19.099-3.024 26.6 0.337 2.31 0.617 5.044 0.621 6.076 7e-3 1.914 0.529 2.826 0.965 1.689 0.133-0.347 0.243-2.191 0.244-4.098 0.023-32.06 16.093-53.138 46.998-61.647 9.83-2.706 29.956-1.693 35.248 1.775 1.293 0.847 1.211 1.42-0.647 4.501-2.361 3.914-3.861 8.175-4.332 12.304-0.226 1.98-0.71 5.31-1.075 7.4-1.903 10.897 1.758 37.875 6.581 48.494 0.625 1.378 1.381 3.091 1.679 3.806 0.425 1.021 0.778 1.3 1.644 1.3 1.287 0 1.26 0.106 0.536-2.086-0.311-0.943-0.772-2.794-1.023-4.114-0.252-1.32-0.977-4.2-1.612-6.4s-1.441-5.674-1.792-7.72-1.256-6.726-2.012-10.4c-1.326-6.452-1.375-7.014-1.44-16.48l-0.068-9.8 2.033-5.333c3.576-9.38 7.308-13.312 11.241-11.842 3.158 1.18 11.062 7.634 12.715 10.383 0.402 0.668 0.481 0.382 0.5-1.828l0.024-2.62-3.638-2.58c-2-1.419-4.379-3.076-5.285-3.683-2.008-1.344-5.517-2.697-6.997-2.697-0.6 0-2-0.613-3.112-1.361-7.627-5.137-28.695-6.338-42.22-2.408-12.549 3.647-20.688 8.283-29.068 16.558-5.258 5.192-5.403 5.217-5.707 0.979-0.143-2.008-0.604-4.12-1.258-5.768-0.963-2.427-1.656-6.393-1.552-8.874 0.025-0.59-0.136-1.186-0.359-1.323-0.222-0.138-0.409-0.015-0.416 0.273-8e-3 0.322-0.17 0.253-0.422-0.179-0.225-0.387-0.299-0.882-0.164-1.1s-0.114-0.397-0.554-0.397c-0.439 0-1.39-0.54-2.112-1.2-0.723-0.66-1.448-1.2-1.611-1.2-0.164 0-1.158-0.547-2.211-1.215-2.058-1.307-11.928-4.645-17.053-5.769-2.773-0.608-4.885-0.651-7.661-0.158-0.641 0.114-0.921-0.222-1.408-1.687-2.072-6.238-8.322-9.908-21.065-12.367-7.999-1.543-9.279-1.212-14.984 3.878-1.386 1.237-4.145 3.292-6.132 4.566-5.409 3.472-5.773 3.825-7.22 7-4.068 8.927-12.025 11.378-22.469 6.922-2.033-0.867-4.522-2.98-4.522-3.838 0-1.005 3.931-2.29 11.4-3.727 7.243-1.394 15.8-4.752 20.4-8.005 1.54-1.089 3.866-2.732 5.169-3.652 12.579-8.877 24.237-28.485 26.249-44.148 0.845-6.579 0.619-19.477-0.828-47.2-2.713-52.009-17.052-80.301-43.99-86.793-7.614-1.835-14.487-2.527-18.228-1.836-3.576 0.661-4.885-2.413-3.195-7.501 0.408-1.23 0.634-3.034 0.582-4.649-0.069-2.127 0.052-2.741 0.62-3.157 0.657-0.48 0.63-0.566-0.389-1.234-0.872-0.571-0.983-0.796-0.543-1.1 0.38-0.263 0.24-0.293-0.447-0.096-1.146 0.328-1.241 0.332-3.4 0.176l-1.6-0.115 1.4-0.295c1.701-0.358-1.195-0.437-3.4-0.093m2.761 1.356c-0.195 0.316-0.017 0.393 0.562 0.241 0.96-0.251 2.277 0.891 1.377 1.194-0.785 0.264-0.585 1.302 0.251 1.302 1.682 0 1.802 2.521 0.305 6.4-0.962 2.494 0.409 10.718 1.696 10.169 5.079-2.169 8.794-1.92 21.848 1.461 18.522 4.799 31.168 21.616 37.145 49.4 2.723 12.657 4.79 32.588 5.244 50.57 0.137 5.39 0.319 10.43 0.406 11.2 0.774 6.865 0.251 19.665-1 24.477-3.663 14.09-10.606 25.765-20.913 35.168-10.986 10.023-15.869 12.555-29.963 15.54-3.235 0.685-7.915 1.897-10.4 2.693-9.091 2.912-19.365 0.9-26.66-5.223-7.445-6.247-13.005-12.41-17.732-19.655-2.795-4.283-8.327-14.181-8.327-14.899 0-0.238-0.65-1.934-1.443-3.767-0.794-1.834-1.713-4.054-2.043-4.934s-0.932-2.41-1.339-3.4c-1.16-2.82-3.483-11.676-4.827-18.4-1.894-9.483-2.349-12.131-2.918-17-0.696-5.956-0.987-15.967-0.503-17.3 0.584-1.607 1.286-1.678 15.924-1.601 23.063 0.121 44.656-0.105 49.149-0.514 2.31-0.21 5.82-0.544 7.8-0.743 1.98-0.198 5.022-0.476 6.76-0.617s4.207-0.61 5.487-1.041 2.491-0.784 2.692-0.784c0.599 0 3.361-1.233 3.176-1.418-0.094-0.094-1.465 0.188-3.047 0.626-7.05 1.954-17.108 2.454-50.268 2.501-31.865 0.046-39.834-0.775-46.268-4.768-9.14-5.671-4.285-20.282 8.203-24.683 0.404-0.143 3.374-0.442 6.6-0.666s8.925-0.673 12.665-0.998 9.23-0.757 12.2-0.96c8.035-0.549 8.452-0.939 3.378-3.158l-3.178-1.388-7-0.014c-5.55-0.011-7.87 0.16-11.2 0.825-7.629 1.525-8.082-0.017-2.977-10.138 4.769-9.454 11.718-18.361 15.754-20.191 3.198-1.45 3.031-1.2 2.937-4.414-0.048-1.616-0.273-3.805-0.5-4.866-0.494-2.304-0.512-6.668-0.037-8.89 0.188-0.88 0.542-2.579 0.787-3.777 0.562-2.75 1.297-3.871 3.013-4.588 0.748-0.312 1.664-1.032 2.036-1.598 0.639-0.975 5.758-3.004 7.708-3.055 0.373-9e-3 1.399-0.298 2.279-0.641 1.022-0.398 3.66-0.717 7.304-0.882 5.11-0.232 7.573-0.821 4.973-1.19-1.182-0.167-0.431-1.266 0.872-1.275 0.468-3e-3 1.121-0.181 1.451-0.394 0.789-0.51 0.907-0.497 0.561 0.063m1.639 35.367c-2.486 2.097-4.793 2.581-18.116 3.798-2.263 0.206-4.946 0.562-5.96 0.789-1.015 0.228-2.625 0.373-3.577 0.324-1.829-0.095-2.543 0.223-1.915 0.851 0.529 0.529 7.196 1.243 9.368 1.003 0.99-0.11 4.372-0.479 7.515-0.821 9.642-1.05 15.437-3.143 15.209-5.495-0.157-1.614-0.972-1.759-2.524-0.449m-33.4 39.36c-12.135 0.254-14.166 0.389-16.837 1.117-12.615 3.439-16.787 11.09-8.866 16.258 6.402 4.177 52.597 5.168 68.138 1.462 2.731-0.652 6.81-1.459 9.064-1.795 10.175-1.516 10.946-7.442 1.701-13.081-6.571-4.007-16.344-4.735-53.2-3.961m29.231 1.881c0.361 0.361 0.277 0.784-0.358 1.812-1.948 3.152-1.817 6.601 0.374 9.785 1.386 2.014 1.313 2.721-0.314 3.066-2.492 0.529-24.389 1.129-27.733 0.761-2.215-0.244-4.335-0.232-6.082 0.034-6.539 0.994-17.206-2.018-18.926-5.344-2.505-4.845 1.413-8.38 10.608-9.572 6.618-0.857 7.503-0.503 6.165 2.464-2.602 5.772 2.417 13.294 6.846 10.259 3.376-2.313 4.347-6.63 2.371-10.536-0.612-1.211-0.979-2.336-0.816-2.501 0.75-0.752 27.125-0.969 27.865-0.228m12.955 0.344c13.464 1.492 21.572 11.514 9.993 12.352-2.189 0.158-5.948 0.545-8.354 0.86-8.077 1.058-8.529 0.879-6.705-2.657 1.663-3.226 1.68-5.108 0.071-8.123l-1.209-2.266 0.909-0.37c0.5-0.203 1.359-0.3 1.909-0.215s2.074 0.273 3.386 0.419m-43.26 1.85c3.857 2.055 2.916 9.135-1.214 9.135-3.638 0-5.092-6.031-2.068-8.576 1.352-1.137 1.992-1.246 3.282-0.559m34.848-0.075c2.252 0.856 3.327 4.694 2.022 7.218-2.272 4.394-7.732 0.561-6.25-4.387 0.736-2.456 2.358-3.542 4.228-2.831m34.229 15.67c-1.273 1.757-1.468 2.34-0.783 2.34 0.812 0 2.761-1.217 3.168-1.978 1.321-2.468-0.644-2.766-2.385-0.362m6.477 30.42c-0.724 0.724-0.585 1.507 0.53 2.968 1.94 2.545 5.25 12.31 5.564 16.419 0.36 4.7-0.067 5.637-3.268 7.183-4.78 2.308-5.281 2.045-13.313-6.972-2.767-3.106-2.98-3.115-10.024-0.434-16.341 6.219-26.572 7.926-38.169 6.367-10.017-1.347-10.072-1.317-11.42 6.303-1.335 7.545-3.662 7.645-5.189 0.224-0.264-1.286-1.09-4.206-1.836-6.489-2.458-7.529-2.744-7.286 8.725-7.411 9.789-0.106 15.357-0.765 21.099-2.494 1.859-0.56 4.379-1.098 5.6-1.196 6.002-0.479 9.755-2.473 4.05-2.152-0.753 0.043-1.833 0.255-2.4 0.471-4.982 1.906-16.089 2.375-35.764 1.512-12.126-0.532-11.726-0.813-9.409 6.621 0.686 2.2 2.18 7.15 3.321 11 2.486 8.392 3.497 10 6.286 10 0.24 0 1.837 0.632 3.549 1.405 6.517 2.943 20.761 4.999 28.913 4.173 8.009-0.811 18.525-2.474 21.475-3.397 1.65-0.516 4.405-1.311 6.122-1.767 6.871-1.826 16.688-6.709 22.183-11.035 4.876-3.838 5.064-5.07 1.863-12.223-1.018-2.274-1.464-3.995-1.764-6.8-0.45-4.214-0.549-4.699-1.692-8.356-1.204-3.852-3.394-5.558-5.032-3.92m-5.28 2.482c-2.931 1.104-3.705 1.466-3.524 1.648 0.332 0.331 4.211-0.992 4.725-1.611 0.589-0.71 0.588-0.71-1.201-0.037m-7.899 2.484c-1.374 0.299-3.534 0.977-4.8 1.509-1.265 0.531-3.111 1.169-4.101 1.418-2.378 0.597-5.6 2.065-5.6 2.55 0 0.71 4.946 0.016 7.209-1.012 1.205-0.547 3.109-1.213 4.232-1.479 2.135-0.506 7.755-3.67 6.359-3.58-0.44 0.028-1.924 0.296-3.299 0.594m-69.145 11.568c0.48 0.479 0.524 0.85 0.202 1.695-0.226 0.596-0.301 1.67-0.166 2.387 0.37 1.973 6e-3 1.572-0.989-1.088-1.15-3.076-0.662-4.61 0.953-2.994m71.171 6.654c3.07 1.643 5.714 5.246 5.078 6.92-1.1 2.893-23.519 10.599-34.955 12.015-8.837 1.094-22.49 0.581-25.355-0.952-1.588-0.85-1.722-2.431-0.51-6.005 1.519-4.483 2.017-4.968 4.806-4.687 14.555 1.465 26.707-0.273 39.409-5.636 7.107-3.001 8.609-3.217 11.527-1.655m16.412 6.546c-0.849 2.214-11.442 7.786-14.802 7.786-1.519 0-1.095-0.636 1.563-2.342 1.375-0.883 3.23-2.151 4.123-2.819 2.87-2.147 9.686-4.11 9.116-2.625m-27.439 57.545c-1.262 0.453-1.533 1.841-0.36 1.841 1.334 0 3.268-0.868 3.69-1.656 0.469-0.876-1.154-0.966-3.33-0.185m54.767 18.812c-0.262 0.681 0.721 1.607 1.315 1.24 0.23-0.142 0.418-0.608 0.418-1.035 0-0.916-1.397-1.082-1.733-0.205m6.333 5.062c-1.54 1.33-3.97 3.192-5.4 4.137-3.222 2.13-6.515 5.558-5.522 5.75 3.074 0.592 15.349-8.443 15.043-11.072-0.194-1.666-1.134-1.395-4.121 1.185m-156.33 3.267c-1.781 3.755-1.88 14.841-0.235 26.3 2.368 16.497 0.025 23.683-10.403 31.901-0.514 0.406 1.02 0.491 8.027 0.446l8.662-0.055 0.215-1.246c0.569-3.306-6e-3 -19.308-0.887-24.646-0.489-2.97-1.259-7.65-1.711-10.4-1.162-7.083-1.159-9.388 0.019-11.91l0.961-2.059-1.038-3.116c-0.571-1.713-1.236-3.88-1.477-4.815-0.524-2.033-1.29-2.177-2.133-0.4m178.3 11.267c-0.427 0.312-0.67 0.673-0.541 0.803 0.13 0.129 0.562-0.126 0.962-0.568 0.85-0.939 0.675-1.036-0.421-0.235m-4.553 2.534c-1.612 0.819-2.06 1.699-0.864 1.699 0.96 0 3.779-2.37 2.84-2.388-0.33-6e-3 -1.219 0.304-1.976 0.689m-123 0.049c0.862 0.795 7.209 2.534 11.826 3.241 5.16 0.79 6.905 0.806 2.886 0.027-1.283-0.249-3.772-0.887-5.532-1.417-5.908-1.78-9.998-2.604-9.18-1.851m-118.77 21.465c-0.869 2.266 0.134 10.431 1.742 14.185 0.613 1.43 1.237 3.745 1.386 5.145 0.321 2.991 0.877 4.055 2.119 4.055 1.147 0 1.147-1e-3 -0.35-3.809-0.872-2.218-1.422-4.591-1.803-7.782-0.459-3.831-2.213-11.812-2.705-12.304-0.076-0.077-0.251 0.153-0.389 0.51m72.545 11.061c6e-3 4.648-0.467 6.47-0.939 3.616-0.334-2.023-0.321-8.692 0.018-9.031 0.633-0.634 0.915 1.022 0.921 5.415" fill="#6f1617"/>
<path d="m181.7 106.1c0.253 0.769 1.902 0.88 1.902 0.128 0-0.409-0.361-0.628-1.033-0.628-0.648 0-0.972 0.187-0.869 0.5m0.102 10.87c-4.573 1.966-7.868 8.379-8.392 16.331l-0.256 3.9 1.101 0.419c1.425 0.542 5.726-0.102 7.471-1.118 2.736-1.593 3.646-6.921 2.736-16.003-0.354-3.526-0.92-4.278-2.66-3.529m-22.6 0.806c-1.87 0.51-3.706 1.055-4.081 1.211-2.341 0.976-1.96 9.677 0.759 17.319 1.845 5.185 4.969 4.769 5.37-0.714 0.422-5.779 1.348-8.564 4.601-13.826 3.151-5.098 1.358-6.174-6.649-3.99m24.619 1.185c0.133 0.707 0.182 3.974 0.109 7.262-0.186 8.478-1.302 10.415-6.26 10.864-3.791 0.344-4.366-0.996-3.278-7.642 1.173-7.162 8.52-15.331 9.429-10.484m-17.547-0.719c0.24 0.627-0.019 1.218-2.847 6.51-1.557 2.913-2.588 6.714-2.965 10.935-0.26 2.912-0.26 2.913-1.46 2.913-3.423 0-6.664-16.829-3.624-18.821 2.509-1.644 10.426-2.76 10.896-1.537m23.93 4.258c-1.406 1.214-1.667 4.014-1.008 10.841 0.455 4.711 0.441 5.431-0.125 6.525-2.082 4.027-19.736 7.083-31.269 5.413-4.378-0.634-4.984-1.002-5.778-3.513-1.128-3.564-2.711-2.663-9.2 5.234-5.057 6.154-10.924 18.153-9.468 19.362 0.53 0.439 12.627-0.456 13.507-1 2.736-1.69 39.226-2.752 47.339-1.377 1.1 0.186 4.16 0.637 6.8 1.001 5.226 0.721 6.172 0.97 12.944 3.399 11.867 4.258 16.121 11.357 12.692 21.185-0.57 1.634-1.038 3.254-1.04 3.6-0.027 4.312-6.012 9.006-14.596 11.445-9.836 2.795-54.066 4.394-64.2 2.321-5.629-1.152-19.544-0.186-20.868 1.448-1.076 1.33-0.336 14.316 1.278 22.416 0.416 2.09 1.13 5.87 1.587 8.4 2.565 14.224 7.42 28.253 13.635 39.4 3.574 6.409 6.014 10.096 9.896 14.95 6.503 8.133 14.219 13.767 22.872 16.703 3.387 1.149 10.242 0.969 15.2-0.4 2.09-0.577 6.41-1.602 9.6-2.276 22.175-4.692 28.742-11.813 35.389-38.377 2.815-11.25 2.347-12.313-3.638-8.274-5.925 3.999-14.471 8.108-20.551 9.882-1.65 0.482-4.357 1.292-6.014 1.8-16.915 5.189-37.821 4.835-52.586-0.889-6.753-2.618-8.069-3.951-9.199-9.319-0.162-0.77-1.28-4.64-2.484-8.6-3.867-12.712-3.776-12.178-2.322-13.632l0.996-0.995 9.704 0.183c9.446 0.179 9.523 0.174 2.905-0.18-17.109-0.916-16.67-1.289-12.83 10.924 1.193 3.795 2.55 8.396 3.015 10.224 2.006 7.894 2.736 8.85 8.615 11.287 22.923 9.501 57.712 5.179 80.6-10.013 5.164-3.428 5.478-2.757 3.182 6.802-6.186 25.751-13.573 34.457-32.398 38.183-1.861 0.368-6.444 1.409-10.184 2.312-8.604 2.079-12.619 2.198-17.594 0.523-12.193-4.106-22.012-13.743-31.801-31.209-3.037-5.418-8.629-18.684-9.953-23.609-1.46-5.43-3.363-14.03-4.25-19.2-0.566-3.3-1.115-6.283-1.22-6.63-1.136-3.738-1.752-19.565-0.793-20.361 0.692-0.574 2.803-0.629 4.177-0.108 0.587 0.222 1.765 0.219 3-8e-3 1.119-0.205 4.374-0.269 7.234-0.141s5.38 0.238 5.6 0.245c4.488 0.141 38.399-0.462 42.6-0.757 16.952-1.19 20.249-1.701 26.4-4.091 7.745-3.008 11.264-7.819 12.829-17.54 1.73-10.739-7.927-18.55-26.718-21.611-13.295-2.166-30.778-2.561-43.911-0.992-0.88 0.105-4.39 0.299-7.8 0.43-5.04 0.194-7.034 0.457-10.653 1.407-6.952 1.823-7.111 1.398-2.72-7.27 3.231-6.379 6.067-10.503 10.255-14.913 3.227-3.399 3.762-3.39 4.956 0.077 1.115 3.239 0.936 3.112 5.162 3.66 4.304 0.559 3.792 0.556 7 0.044 1.43-0.228 4.475-0.603 6.766-0.834 9.049-0.91 16.332-3.02 18.237-5.284l1.003-1.191-0.264-7.89-0.263-7.889 1.16-0.918c2.519-1.992 8.975-0.613 13.761 2.94 4.716 3.501 13.738 16.25 17.672 24.972 2.742 6.078 7.447 19.989 8.338 24.653 0.252 1.32 0.969 4.47 1.592 7 1.177 4.777 4.146 22.112 4.624 27 0.151 1.54 0.322 3.07 0.381 3.4 1.097 6.135 1.254 29.4 0.199 29.4-0.427 0-1.005-1.55-2.045-5.484-2.493-9.422-3.934-12.292-6.49-12.934-1.128-0.283-1.756-0.094-9.271 2.802-20.209 7.786-39.715 12.616-50.951 12.616-2.007 0-3.649 0.135-3.649 0.3-1e-3 0.416 10.428-0.102 13.6-0.676 9.792-1.771 15.777-3.15 21-4.837 12.294-3.971 23.09-7.797 25.48-9.03 4.881-2.518 7.679 1.298 10.15 13.843 0.789 4.007 1.511 5.6 2.537 5.6 1.191 0 1.293-0.871 1.257-10.8-0.094-26.483-5.882-57.914-14.804-80.4-4.266-10.752-14.735-25.353-20.88-29.12-4.145-2.542-10.872-3.363-12.938-1.58m-6.202 44.754c-3.718 0.861-2.974 1.412 3.696 2.741 2.257 0.449 5.724 1.34 7.704 1.979s4.549 1.391 5.708 1.672c2.814 0.68 4.007 1.743 3.091 2.755-0.615 0.68-0.492 0.85 2.137 2.948 9.882 7.884 8.755 14.319-2.918 16.667-2.172 0.437-6.124 1.322-8.783 1.967s-6.23 1.387-7.935 1.65c-1.705 0.262-3.1 0.612-3.1 0.778 0 1.203 19.977 0.411 25.519-1.011 6.586-1.69 7.219-2.081 9.829-6.069 0.691-1.057 1.616-1.975 2.054-2.042 2.133-0.322 2.632-0.594 3.239-1.769 1.715-3.315-0.116-10.281-3.606-13.72-6.295-6.203-26.446-10.904-36.635-8.546m30.175 6.83c3.098 1.558 5.285 3.285 6.061 4.786 1.114 2.154 0.377 2.026-2.573-0.445-1.604-1.343-4.15-3.063-5.66-3.823-1.509-0.76-2.873-1.591-3.031-1.847-0.486-0.787 2.527-0.017 5.203 1.329m-90.375 2.069c-10.019 3.226-14.831 15.664-8.058 20.83 2.146 1.637 6.003 3.002 10.186 3.605 4.27 0.615 28.684 0.823 29.608 0.251 0.793-0.49-3.006-0.831-9.336-0.839-17.692-0.022-26.6-3.907-26.6-11.6 0-3.907 2.764-7.152 8.689-10.2 1.711-0.88 3.111-1.78 3.111-2 0-0.602-5.764-0.638-7.6-0.047m4.997 0.547c-2e-3 0.165-1.044 0.97-2.316 1.789-8.367 5.39-9.961 11.67-4.237 16.696 1.496 1.313 7.438 4.415 8.458 4.415 0.303 0 0.421 0.201 0.267 0.451-1.025 1.658-12.422-1.168-15.308-3.796-5.665-5.158-0.932-16.773 7.939-19.481 1.317-0.402 5.201-0.457 5.197-0.074m83.807 4.285c6.179 3.953 7.746 13.353 2.663 15.98-3.693 1.909-16.311 3.915-20.575 3.272-3.371-0.509-1.395-1.4 7.614-3.431 12.148-2.739 14.504-7.927 7.123-15.689-2.266-2.383-0.462-2.458 3.175-0.132m-65.159 1.365c-2.159 2.385-0.437 7.339 2.36 6.789 1.219-0.239 2.385-2.223 2.338-3.979-0.076-2.915-3.013-4.672-4.698-2.81m35.073 0.319c-1.628 2.484-0.39 6.131 2.081 6.131 2.249 0 3.339-3.012 2.016-5.571-1.003-1.939-3.013-2.214-4.097-0.56m-32.189 2.259c0.149 1.295-0.536 2.321-1.343 2.011-0.809-0.31-1.099-1.581-0.581-2.548 0.622-1.163 1.765-0.844 1.924 0.537m34.671 0.405c0 0.587-0.16 1.112-0.356 1.167-0.573 0.161-1.195-1.129-0.907-1.879 0.389-1.014 1.263-0.521 1.263 0.712m-24.709 54.556c0.71 0.088 1.97 0.09 2.8 3e-3s0.249-0.159-1.291-0.161-2.219 0.069-1.509 0.158m112 73.075c-1.069 1.069-1.715 17.084-0.918 22.742 0.513 3.641-4.698 9.012-11.377 11.726-1.398 0.568-4.355 1.946-6.57 3.063-24.764 12.481-65.228 15.688-91.828 7.279-8.888-2.81-11.913-4.957-14.343-10.181-2.981-6.407-3.644-9.482-3.664-16.993-0.029-10.78-0.783-11.315-10.593-7.508-19.247 7.469-25.105 17.525-16.912 29.032 4.528 6.359 24.231 14.986 40.403 17.691 3.578 0.599 7.946 1.528 9.707 2.066 3.678 1.124 22.332 1.978 28.202 1.292 1.65-0.193 6.78-0.54 11.4-0.77 4.62-0.231 9.673-0.671 11.228-0.978 1.555-0.306 6.235-0.938 10.4-1.402 12.474-1.392 13.608-1.562 17.263-2.595 1.93-0.545 4.623-1.185 5.985-1.423 1.361-0.237 3.469-0.773 4.684-1.191 1.214-0.418 3.94-1.232 6.058-1.809 4.526-1.233 13.696-5.54 15.982-7.508 0.88-0.757 2.808-2.108 4.283-3.002 11.899-7.207 16.81-13.869 16.881-22.895 0.043-5.544-0.584-7.093-3.866-9.545-5.215-3.896-20.699-8.796-22.405-7.091m10.375 2.239c12.228 3.685 15.562 6.788 15.468 14.397-0.071 5.748-1.524 9.092-6.148 14.141-3.817 4.169-13.472 10.659-15.856 10.659-0.349 0-1.557 0.526-2.683 1.168-9.591 5.469-27.795 10.228-48.249 12.614-4.73 0.552-10.67 1.295-13.2 1.65-6.98 0.982-38.056 1.013-42.6 0.042-1.76-0.375-6.054-1.131-9.542-1.68-26.759-4.204-45.496-15.041-45.449-26.285 0.026-6.205 6.67-11.914 19.899-17.099 6.522-2.556 6.892-2.383 6.892 3.233 0 11.903 3.021 22.638 7.265 25.822 22.677 17.006 89.661 12.555 115.36-7.665 8.283-6.516 8.949-7.551 7.941-12.342-0.729-3.468-0.188-19.073 0.699-20.141 0.75-0.904 3.691-0.476 10.199 1.486m-208.07 9.968c-10.614 1.869-23.225 8.454-27.054 14.126-2.886 4.276-4.071 5.559-6.287 6.815-6.713 3.801-12.857 18.175-13.515 31.619-0.505 10.317 2.309 27.243 3.469 20.864 0.211-1.16 0.098-2.165-0.808-7.195-2.211-12.268 0.541-29.402 5.863-36.5 3.124-4.166 2.694 2.302-1.431 21.541-2.198 10.246-1.877 23.559 0.566 23.559h0.916l-0.043-8.5c-0.082-16.283 2.631-28.743 6.73-30.9 0.836-0.44 2.617-2.03 3.958-3.533 5.518-6.186 8.736-8.377 22.038-15.006 13.381-6.667 18.2-10.505 18.2-14.494 0-3.214-3.83-3.942-12.602-2.396m9.356 1.592c2.72 1.723-3.26 6.487-16.36 13.035-11.49 5.742-13.091 6.716-17.994 10.949-4.657 4.019-5.203 4.266-5.194 2.353 0.018-3.943 3.088-11.276 6.09-14.55 6.145-6.7 28.857-14.701 33.458-11.787m63.649 3.833c-0.394 0.475-0.363 1.632 0.153 5.7 0.355 2.807 0.646 6.369 0.645 7.915-2e-3 4.587 1.076 5.226 15.067 8.935 27.132 7.192 56.992 5.925 80.532-3.419 9.09-3.607 9.677-4.463 8.396-12.231-1.374-8.332-1.157-8.23-10.69-5.039-9.011 3.017-19.105 5.707-24.506 6.532-2.31 0.353-5.894 0.914-7.965 1.246-10.402 1.67-20.426 1.533-31.835-0.434-10.668-1.84-16.382-3.636-24.141-7.589-4.772-2.431-4.94-2.479-5.656-1.616m5.955 2.356c14.089 7.147 38.156 10.787 53.642 8.112 2.09-0.361 6.182-1.019 9.094-1.463 7.867-1.2 14.174-2.842 25.292-6.584 7.303-2.458 7.626-2.516 8.508-1.517 0.762 0.863 2.484 10.894 2.091 12.182-1.984 6.506-37.684 14.697-59.785 13.718-11.234-0.498-27.372-3.681-37.848-7.465-4.049-1.463-4.914-2.327-5.169-5.173-0.107-1.189-0.493-4.517-0.857-7.396-0.961-7.593-1.062-7.505 5.032-4.414m89.731 5.671c-1.825 1.278-0.771 4.977 1.418 4.977 0.291 0 0.971-0.442 1.511-0.982 2.224-2.224-0.382-5.779-2.929-3.995m-91.537 1.193c-1.41 2.154 1.506 4.588 3.115 2.6 0.93-1.148 0.931-2.113 2e-3 -2.954-1.063-0.961-2.35-0.815-3.117 0.354m94.019-0.387c1.727 1.726-0.435 4.342-2.24 2.709-0.893-0.809-0.915-1.297-0.108-2.449 0.733-1.047 1.479-1.129 2.348-0.26m-91.439 0.871c0.494 0.961 0.156 1.7-0.778 1.7-0.978 0-1.402-1.019-0.75-1.805 0.649-0.782 1.087-0.751 1.528 0.105m72.228 3.206c-1.699 1.135-1.388 3.871 0.494 4.343 1.069 0.269 2.946-1.19 2.946-2.289 0-1.227-2.47-2.702-3.44-2.054m-60.48 0.974c-1.284 1.284-0.013 4.32 1.809 4.32 0.849 0 2.111-1.537 2.111-2.571 0-1.858-2.635-3.034-3.92-1.749m62.52 1.12c0 0.733-0.241 1.034-0.902 1.128-0.983 0.14-1.541-0.718-1.143-1.756 0.406-1.056 2.045-0.553 2.045 0.628m-59.6 0.6c0 1.065-0.134 1.2-1.195 1.2-1.235 0-1.72-0.801-1.241-2.05 0.462-1.203 2.436-0.514 2.436 0.85m35.375 0.335c-0.67 0.332-1.014 0.88-1.099 1.749-0.242 2.487 2.718 3.17 3.929 0.907 0.878-1.642-1.111-3.508-2.83-2.656m-21.951 1.441c-0.914 0.914-1.028 1.695-0.415 2.841 1.026 1.916 3.749 1.688 4.262-0.358 0.609-2.427-2.133-4.197-3.847-2.483m23.776 0.424c0 1.165-1.538 1.659-1.937 0.621-0.384-1.001 0.161-1.874 1.088-1.742 0.607 0.086 0.849 0.406 0.849 1.121m-21.08 0.08c1.421 1.421-0.228 3.62-1.858 2.478-1.386-0.97-0.89-2.958 0.738-2.958 0.352 0 0.856 0.216 1.12 0.48m-71.39 7.358c-0.134 0.35-0.103 2.285 0.069 4.3 0.173 2.014 0.278 4.755 0.235 6.091s0.325 5.206 0.819 8.6c0.921 6.335 1.322 20.891 0.657 23.871-0.216 0.969-0.152 1.3 0.251 1.3 1.778 0 2.342-14.619 0.916-23.712-0.373-2.372-0.677-5.449-0.677-6.837 0-1.517-0.329-3.47-0.823-4.888-0.452-1.3-0.928-3.574-1.057-5.054-0.327-3.756 0.27-3.883 3.77-0.801 6.056 5.332 15.929 10.454 23.536 12.21 1.526 0.352 5.114 1.181 7.974 1.842s7 1.391 9.2 1.623 6.7 0.703 10 1.047c7.426 0.772 29.33 1.464 36.6 1.155 9.437-0.4 25.826-2.27 31.6-3.604 2.31-0.534 6.36-1.35 9-1.814s6.15-1.26 7.8-1.769 4.08-1.219 5.4-1.578c2.672-0.726 8.356-2.747 14.371-5.11 5.825-2.289 6.018-2.173 6.431 3.89 0.135 1.98 0.498 5.857 0.807 8.615 0.931 8.305 1.497 17.983 1.257 21.485-0.125 1.815-0.077 3.3 0.106 3.3 1.096 0 0.795-12.938-0.577-24.8-0.318-2.75-0.701-6.874-0.851-9.164-0.399-6.087-1.166-6.622-6.277-4.376-1.577 0.693-4.127 1.666-5.667 2.161s-4.33 1.439-6.2 2.098c-5.894 2.076-13.255 4.047-17.4 4.66-2.2 0.326-5.71 1.033-7.8 1.571-5.825 1.502-13.694 2.472-28.4 3.5-6.544 0.457-28.929-0.089-35.4-0.864-1.76-0.211-5.27-0.48-7.8-0.598-6.068-0.282-11.392-0.896-14.047-1.619-1.184-0.322-4.354-1.032-7.043-1.577-10.218-2.07-21.331-7.793-27.491-14.158-1.653-1.708-2.874-2.078-3.289-0.996" fill="#c5524e"/>
</g>
</svg>
